<svg id="Layer_2" data-name="Layer 2" xmlns="http://www.w3.org/2000/svg" xmlns:xlink="http://www.w3.org/1999/xlink" viewBox="0 0 458.79 166.96"><defs><style>.cls-1{fill:#6968b0;}.cls-2{fill:url(#linear-gradient);}</style><linearGradient id="linear-gradient" x1="316.52" y1="49.86" x2="425.35" y2="102.33" gradientUnits="userSpaceOnUse"><stop offset="0.05" stop-color="#6968b0"/><stop offset="0.28" stop-color="#a75999"/><stop offset="0.52" stop-color="#f1709c"/><stop offset="0.55" stop-color="#e675a2"/><stop offset="0.65" stop-color="#c981b2"/><stop offset="0.74" stop-color="#b789bc"/><stop offset="0.81" stop-color="#b18cc0"/></linearGradient></defs><path class="cls-1" d="M108.94,149h-.81a28.67,28.67,0,0,1-20.75-8.19,26.9,26.9,0,0,1-8.45-20.11V78.49H41.88v32.88a8.33,8.33,0,0,1-2.57,6.36,9.28,9.28,0,0,1-6.62,2.42,9,9,0,0,1-6.56-2.42,8.46,8.46,0,0,1-2.5-6.36v-76A8.46,8.46,0,0,1,26.13,29a9,9,0,0,1,6.56-2.42A9.28,9.28,0,0,1,39.31,29a8.33,8.33,0,0,1,2.57,6.36V60.8c12.34,0,24.72-.25,37,0-.53-5.13,2.71-9.81,4.91-14.3a70.85,70.85,0,0,1,4.59-8.87,15.78,15.78,0,0,1,5.29-5c3-1.59,3.47-.21,3.47,2.79v85.3a10.09,10.09,0,0,0,3.18,7.53,10.74,10.74,0,0,0,7.77,3.08h.81a9.14,9.14,0,0,1,6.63,2.49,8.56,8.56,0,0,1,2.57,6.42,8.33,8.33,0,0,1-2.57,6.35A9.26,9.26,0,0,1,108.94,149Z"/><path class="cls-1" d="M121.37,89.75a10.09,10.09,0,0,0,3.12,7.15,9.79,9.79,0,0,0,7.09,2.94,9,9,0,0,1,6.58,2.43,8.69,8.69,0,0,1,2.47,6.48,8.55,8.55,0,0,1-2.47,6.36,8.76,8.76,0,0,1-6.38,2.42,26.94,26.94,0,0,1-20-8.12,27.64,27.64,0,0,1-8-20.18V82a8.92,8.92,0,0,1,8.72-8.78,15.12,15.12,0,0,0,11.13-4.65,15.35,15.35,0,0,0,4.62-11.2,15.69,15.69,0,1,0-31.37,0v51.36a8.51,8.51,0,0,1-2.47,6.36,8.76,8.76,0,0,1-6.38,2.42A8.44,8.44,0,0,1,81.8,115a8.58,8.58,0,0,1-2.47-6.29V57.39A32.42,32.42,0,0,1,88.9,33.61,32,32,0,0,1,112.52,24a32.91,32.91,0,0,1,33.32,33.41,32.71,32.71,0,0,1-6.77,20.31A33.08,33.08,0,0,1,121.37,89.75Z"/><path class="cls-1" d="M191.41,82.42H167.89v26.33a8.36,8.36,0,0,1-2.57,6.36,9.3,9.3,0,0,1-6.63,2.42,9,9,0,0,1-6.55-2.42,8.46,8.46,0,0,1-2.5-6.36V52.28A27,27,0,0,1,158,32.1Q166.39,24,178.84,24h12.57A9.3,9.3,0,0,1,198,26.4a8.36,8.36,0,0,1,2.57,6.36A8.56,8.56,0,0,1,198,39.18a9.14,9.14,0,0,1-6.63,2.49H178.84a10.73,10.73,0,0,0-7.78,3.08,10.1,10.1,0,0,0-3.17,7.53V64.73h23.52A9.3,9.3,0,0,1,198,67.15a8.36,8.36,0,0,1,2.57,6.36A8.56,8.56,0,0,1,198,79.93,9.14,9.14,0,0,1,191.41,82.42Z"/><path class="cls-1" d="M222.91,33v75.73a8.33,8.33,0,0,1-2.57,6.36,9.28,9.28,0,0,1-6.62,2.42,9.06,9.06,0,0,1-6.56-2.42,8.46,8.46,0,0,1-2.5-6.36V33a8.46,8.46,0,0,1,2.5-6.36,9.06,9.06,0,0,1,6.56-2.42Q222.92,24.24,222.91,33Z"/><path class="cls-1" d="M261.31,50.84q14.6,0,24.61,9.63a31.69,31.69,0,0,1,10,23.78,31.89,31.89,0,0,1-10,23.85q-10,9.69-24.61,9.69t-24.54-9.69a32,32,0,0,1-9.94-23.85,31.83,31.83,0,0,1,9.94-23.78Q246.72,50.84,261.31,50.84Zm0,17.69a15.91,15.91,0,0,0-11.49,4.58,14.91,14.91,0,0,0-4.73,11.14,15.11,15.11,0,0,0,4.73,11.2,15.73,15.73,0,0,0,11.49,4.65,16,16,0,0,0,11.56-4.65,15,15,0,0,0,4.8-11.2,14.83,14.83,0,0,0-4.8-11.14A16.15,16.15,0,0,0,261.31,68.53Z"/><path class="cls-2" d="M328,48.87q.22,14.21.43,28.42a3.41,3.41,0,0,0,1.94,1.88c1.39.47,2.88-.5,3.89-1.25,5.17-3.87,13.19-14.53,14.23-15.89,6.79-8.88,10.77-10.59,12.51-11.28a31,31,0,0,1,6.46-1.67,37.82,37.82,0,0,1,12.08,0q.44,14,.86,28a3.34,3.34,0,0,0,1.73,2.09c.57.22,1.61.33,3.45-.84,5.3-3.36,15.29-16.12,18.11-19.64,3.19-4,5.1-6,8.2-7.52.68-.34,3-1.42,8.62-2.09a62.56,62.56,0,0,1,14.67,0V82.51l-10.79-.41a7.53,7.53,0,0,0-3.88.41c-.93.38-1.73.95-4.31,3.76-1.3,1.42-1.95,2.13-2.59,2.93-1.69,2.12-7.37,8.3-21.56,23a17.85,17.85,0,0,1-7.77,1.67c-4.85-.2-5.49-.47-6-.84a6.17,6.17,0,0,1-2.16-2.92c-.61-1.61-.77-12.44,0-27.17a9.07,9.07,0,0,0-4.74-.83c-4.1.46-6.72,4-7.77,5.43-3.84,5.07-11.05,12.65-21.56,23a22.24,22.24,0,0,1-7.33,2.92c-2.27.46-4.24.83-6.47,0a8.82,8.82,0,0,1-3.88-2.92v-28h-22V60.78a12.83,12.83,0,0,1,3.88-8.36c3.37-3.07,8-3.4,13.37-3.76a44.27,44.27,0,0,1,6,0Z"/></svg>