<svg id="Layer_2" data-name="Layer 2" xmlns="http://www.w3.org/2000/svg" xmlns:xlink="http://www.w3.org/1999/xlink" viewBox="0 0 279 159"><defs><style>.cls-1{fill:url(#linear-gradient);}</style><linearGradient id="linear-gradient" x1="46.68" y1="24.72" x2="240.12" y2="117.98" gradientUnits="userSpaceOnUse"><stop offset="0.05" stop-color="#6968b0"/><stop offset="0.28" stop-color="#a75999"/><stop offset="0.52" stop-color="#f1709c"/><stop offset="0.55" stop-color="#e675a2"/><stop offset="0.65" stop-color="#c981b2"/><stop offset="0.74" stop-color="#b789bc"/><stop offset="0.81" stop-color="#b18cc0"/></linearGradient></defs><path class="cls-1" d="M67.06,23q.39,25.26.77,50.52a6,6,0,0,0,3.45,3.34c2.45.84,5.11-.89,6.9-2.23,9.18-6.87,23.44-25.81,25.29-28.23,12.08-15.78,19.15-18.83,22.23-20.06a55.8,55.8,0,0,1,11.5-3,68,68,0,0,1,21.46,0q.76,24.89,1.54,49.77c.34,1,1.19,3,3.06,3.72,1,.38,2.86.59,6.14-1.49,9.42-6,27.18-28.65,32.19-34.91,5.67-7.08,9.06-10.68,14.56-13.37,1.23-.6,5.34-2.52,15.34-3.72a111.53,111.53,0,0,1,26.06,0V82.75L238.38,82a13.3,13.3,0,0,0-6.89.74c-1.65.67-3.08,1.69-7.67,6.69-2.31,2.52-3.47,3.78-4.6,5.2-3,3.77-13.11,14.75-38.33,40.86-.82.65-7.78,3.21-13.79,3-8.63-.35-9.77-.84-10.74-1.49a11.11,11.11,0,0,1-3.83-5.2c-1.08-2.86-1.37-22.1,0-48.28A16.13,16.13,0,0,0,144.1,82c-7.29.82-11.93,7.2-13.8,9.66-6.83,9-19.65,22.49-38.33,40.86a39.82,39.82,0,0,1-13,5.2c-4,.81-7.53,1.47-11.5,0a15.78,15.78,0,0,1-6.89-5.2V82.75H21.45V44.12c1-8.87,5.16-13.27,6.9-14.85,6-5.46,14.29-6.05,23.76-6.69a80.43,80.43,0,0,1,10.74,0Z"/></svg>