<svg id="Layer_2" data-name="Layer 2" xmlns="http://www.w3.org/2000/svg" xmlns:xlink="http://www.w3.org/1999/xlink" viewBox="0 0 458.79 167.96"><defs><style>.cls-1{fill:#5a58a6;}.cls-2{fill:url(#linear-gradient);}</style><linearGradient id="linear-gradient" x1="313.71" y1="51.65" x2="419.65" y2="102.72" gradientUnits="userSpaceOnUse"><stop offset="0.05" stop-color="#5a58a6"/><stop offset="0.23" stop-color="#a75999"/><stop offset="0.52" stop-color="#f05b8e"/><stop offset="0.52" stop-color="#ef5b8e"/><stop offset="0.6" stop-color="#cc669e"/><stop offset="0.68" stop-color="#b36eaa"/><stop offset="0.75" stop-color="#a472b1"/><stop offset="0.81" stop-color="#9f74b3"/></linearGradient></defs><path class="cls-1" d="M112.46,150h-.79a28,28,0,0,1-28.35-28.3V79.49h-36v32.88a8.49,8.49,0,0,1-2.49,6.36,8.89,8.89,0,0,1-6.44,2.42,8.33,8.33,0,0,1-8.79-8.78v-76a8.33,8.33,0,0,1,8.79-8.78A8.89,8.89,0,0,1,44.86,30a8.49,8.49,0,0,1,2.49,6.36V61.8c12,0,24-.25,36,0-.52-5.13,2.63-9.81,4.77-14.3a71.34,71.34,0,0,1,4.45-8.87,15.51,15.51,0,0,1,5.14-5c2.86-1.59,3.37-.21,3.37,2.79v85.3a10.52,10.52,0,0,0,10.63,10.61h.79a8.53,8.53,0,0,1,8.92,8.91,8.45,8.45,0,0,1-2.49,6.35A8.85,8.85,0,0,1,112.46,150Z"/><path class="cls-1" d="M124.52,90.75a10.25,10.25,0,0,0,3,7.15,9.36,9.36,0,0,0,6.89,2.94,8.57,8.57,0,0,1,6.38,2.43,8.8,8.8,0,0,1,2.4,6.48,8.66,8.66,0,0,1-2.4,6.36,8.36,8.36,0,0,1-6.19,2.42,25.76,25.76,0,0,1-19.4-8.12q-7.77-8.13-7.77-20.18V83A8.59,8.59,0,0,1,110,76.86a8,8,0,0,1,5.94-2.62,14.46,14.46,0,0,0,10.8-4.65,15.54,15.54,0,0,0,4.48-11.2,15.34,15.34,0,0,0-4.48-11.14,14.58,14.58,0,0,0-10.8-4.58,14.36,14.36,0,0,0-10.74,4.58,15.45,15.45,0,0,0-4.42,11.14v51.36a8.67,8.67,0,0,1-2.41,6.36,8.35,8.35,0,0,1-6.19,2.42A8.06,8.06,0,0,1,86.11,116a8.69,8.69,0,0,1-2.4-6.29V58.39q0-14.14,9.28-23.78A30.62,30.62,0,0,1,115.93,25a30.79,30.79,0,0,1,23,9.63q9.36,9.63,9.35,23.78A33.34,33.34,0,0,1,141.7,78.7,32.13,32.13,0,0,1,124.52,90.75Z"/><path class="cls-1" d="M192.52,83.42H169.68v26.33a8.49,8.49,0,0,1-2.49,6.36,8.89,8.89,0,0,1-6.44,2.42,8.33,8.33,0,0,1-8.79-8.78V53.28A27.78,27.78,0,0,1,180.31,25h12.21A8.86,8.86,0,0,1,199,27.4a8.5,8.5,0,0,1,2.5,6.36,8.55,8.55,0,0,1-8.93,8.91H180.31a10.53,10.53,0,0,0-10.63,10.61V65.73h22.84A8.86,8.86,0,0,1,199,68.15a8.5,8.5,0,0,1,2.5,6.36,8.55,8.55,0,0,1-8.93,8.91Z"/><path class="cls-1" d="M223.1,34v75.73a8.49,8.49,0,0,1-2.49,6.36,8.88,8.88,0,0,1-6.43,2.42,8.33,8.33,0,0,1-8.8-8.78V34a8.33,8.33,0,0,1,8.8-8.78Q223.11,25.24,223.1,34Z"/><path class="cls-1" d="M260.38,51.84a32.63,32.63,0,0,1,23.89,9.63A32.19,32.19,0,0,1,294,85.25a33.54,33.54,0,1,1-67.07,0,32.93,32.93,0,0,1,33.47-33.41Zm0,17.69a15.79,15.79,0,0,0-11.16,26.92,15.06,15.06,0,0,0,11.16,4.65,15.89,15.89,0,0,0,15.88-15.85,15,15,0,0,0-4.66-11.14A15.44,15.44,0,0,0,260.38,69.53Z"/><path class="cls-2" d="M325.11,49.87l.42,28.42a3.3,3.3,0,0,0,1.88,1.88c1.34.47,2.79-.5,3.77-1.25C336.2,75.05,344,64.39,345,63c6.59-8.88,10.46-10.59,12.14-11.28a29.6,29.6,0,0,1,6.28-1.67,35.62,35.62,0,0,1,11.72,0l.84,28a3.28,3.28,0,0,0,1.68,2.09c.55.22,1.56.33,3.34-.84,5.16-3.36,14.85-16.12,17.59-19.64,3.1-4,5-6,8-7.52.66-.34,2.91-1.42,8.37-2.09a59,59,0,0,1,14.24,0V83.51l-10.47-.41a7.1,7.1,0,0,0-3.77.41c-.9.38-1.68.95-4.19,3.76-1.26,1.42-1.89,2.13-2.51,2.93-1.64,2.12-7.16,8.3-20.93,23a17,17,0,0,1-7.54,1.67c-4.71-.2-5.33-.47-5.86-.84a6.22,6.22,0,0,1-2.1-2.92c-.58-1.61-.74-12.44,0-27.17a8.59,8.59,0,0,0-4.6-.83c-4,.46-6.52,4-7.54,5.43-3.73,5.07-10.73,12.65-20.93,23a21.29,21.29,0,0,1-7.12,2.92c-2.21.46-4.12.83-6.28,0a8.68,8.68,0,0,1-3.77-2.92v-28H300.19V61.78c.55-5,2.83-7.47,3.77-8.36,3.27-3.07,7.81-3.4,13-3.76a41.81,41.81,0,0,1,5.87,0Z"/></svg>